<svg width="104" height="100" viewBox="0 0 104 100" fill="none" xmlns="http://www.w3.org/2000/svg">
<mask id="path-1-inside-1" fill="white">
<path d="M103.704 68.2833C103.704 69.4942 103.704 70.705 103.697 71.9176C103.691 72.9371 103.679 73.9567 103.65 74.9762C103.59 77.1961 103.457 79.4387 103.058 81.634C102.653 83.8644 101.993 85.9404 100.947 87.9672C99.9227 89.9571 98.5843 91.7787 96.9867 93.358C95.3891 94.9373 93.5448 96.2622 91.5318 97.2748C89.4834 98.3066 87.3852 98.9611 85.1291 99.3612C82.9066 99.7561 80.6398 99.8877 78.3925 99.9473C74.072 100 72.8471 100 71.6223 100H46.1526H32.0832C27.3756 99.986 26.3443 99.9754 25.3129 99.9473C23.0656 99.8877 20.7988 99.7561 18.5764 99.3612C16.3203 98.9611 14.2221 98.3066 12.1736 97.2748C10.1589 96.2622 8.31634 94.9373 6.71875 93.358C5.12116 91.7787 3.78274 89.9571 2.75673 87.9672C1.71297 85.9404 1.05263 83.8644 0.646136 81.634C0.246739 79.4387 0.115381 77.1961 0.0550281 74.9762C0.0266265 73.9567 0.0142008 72.9371 0.0088755 71.9176C0 70.705 0 69.4942 0 68.2833V56.2264V43.7735V31.7167C0 30.5058 0 29.2933 0.0088755 28.0842C0.0142008 27.0629 0.0266265 26.0433 0.0550281 25.0238C0.115381 22.8022 0.246739 20.5613 0.646136 18.3642C1.05263 16.1338 1.71297 14.0596 2.75673 12.0328C3.78274 10.0411 5.12116 8.21959 6.71875 6.64201C8.31634 5.06091 10.1589 3.73777 12.1736 2.72524C14.2221 1.6934 16.3203 1.03886 18.5764 0.638756C20.7988 0.24392 23.0656 0.112309 25.3129 0.0526447C29.6335 0 30.8583 0 32.0832 0H46.1526H70.6176L55.6993 0.00526447L71.6223 0C76.3281 0.0140386 77.3594 0.0245675 78.3925 0.0526447C80.6398 0.112309 82.9066 0.24392 85.1291 0.638756C87.3852 1.03886 89.4834 1.6934 91.5318 2.72524C93.5448 3.73777 95.3891 5.06091 96.9867 6.64201C98.5843 8.21959 99.9227 10.0411 100.947 12.0328C101.993 14.0596 102.653 16.1338 103.058 18.3642C103.457 20.5613 103.59 22.8022 103.65 25.0238C103.679 26.0433 103.691 27.0629 103.697 28.0842C103.704 29.2933 103.704 30.5058 103.704 31.7167V43.7735V56.2264V68.2833Z"/>
</mask>
<path d="M103.704 68.2833C103.704 69.4942 103.704 70.705 103.697 71.9176C103.691 72.9371 103.679 73.9567 103.65 74.9762C103.59 77.1961 103.457 79.4387 103.058 81.634C102.653 83.8644 101.993 85.9404 100.947 87.9672C99.9227 89.9571 98.5843 91.7787 96.9867 93.358C95.3891 94.9373 93.5448 96.2622 91.5318 97.2748C89.4834 98.3066 87.3852 98.9611 85.1291 99.3612C82.9066 99.7561 80.6398 99.8877 78.3925 99.9473C74.072 100 72.8471 100 71.6223 100H46.1526H32.0832C27.3756 99.986 26.3443 99.9754 25.3129 99.9473C23.0656 99.8877 20.7988 99.7561 18.5764 99.3612C16.3203 98.9611 14.2221 98.3066 12.1736 97.2748C10.1589 96.2622 8.31634 94.9373 6.71875 93.358C5.12116 91.7787 3.78274 89.9571 2.75673 87.9672C1.71297 85.9404 1.05263 83.8644 0.646136 81.634C0.246739 79.4387 0.115381 77.1961 0.0550281 74.9762C0.0266265 73.9567 0.0142008 72.9371 0.0088755 71.9176C0 70.705 0 69.4942 0 68.2833V56.2264V43.7735V31.7167C0 30.5058 0 29.2933 0.0088755 28.0842C0.0142008 27.0629 0.0266265 26.0433 0.0550281 25.0238C0.115381 22.8022 0.246739 20.5613 0.646136 18.3642C1.05263 16.1338 1.71297 14.0596 2.75673 12.0328C3.78274 10.0411 5.12116 8.21959 6.71875 6.64201C8.31634 5.06091 10.1589 3.73777 12.1736 2.72524C14.2221 1.6934 16.3203 1.03886 18.5764 0.638756C20.7988 0.24392 23.0656 0.112309 25.3129 0.0526447C29.6335 0 30.8583 0 32.0832 0H46.1526H70.6176L55.6993 0.00526447L71.6223 0C76.3281 0.0140386 77.3594 0.0245675 78.3925 0.0526447C80.6398 0.112309 82.9066 0.24392 85.1291 0.638756C87.3852 1.03886 89.4834 1.6934 91.5318 2.72524C93.5448 3.73777 95.3891 5.06091 96.9867 6.64201C98.5843 8.21959 99.9227 10.0411 100.947 12.0328C101.993 14.0596 102.653 16.1338 103.058 18.3642C103.457 20.5613 103.59 22.8022 103.65 25.0238C103.679 26.0433 103.691 27.0629 103.697 28.0842C103.704 29.2933 103.704 30.5058 103.704 31.7167V43.7735V56.2264V68.2833Z" fill="black"/>
<path d="M103.697 71.9176L96.6967 71.8766L96.6967 71.881L103.697 71.9176ZM103.65 74.9762L96.6532 74.7813L96.653 74.786L103.65 74.9762ZM103.058 81.634L96.1706 80.381L96.17 80.3842L103.058 81.634ZM100.947 87.9672L94.7259 84.7581L94.723 84.7637L100.947 87.9672ZM96.9867 93.358L101.908 98.3361L101.908 98.3361L96.9867 93.358ZM91.5318 97.2748L88.3863 91.0213L88.3828 91.0231L91.5318 97.2748ZM85.1291 99.3612L83.9068 92.4688L83.9046 92.4692L85.1291 99.3612ZM78.3925 99.9473L78.4778 106.947L78.5281 106.946L78.5783 106.945L78.3925 99.9473ZM32.0832 100L32.0623 107L32.0727 107H32.0832V100ZM25.3129 99.9473L25.5034 92.9499L25.4987 92.9498L25.3129 99.9473ZM18.5764 99.3612L19.8009 92.4692L19.7987 92.4688L18.5764 99.3612ZM12.1736 97.2748L15.3227 91.0231L15.3169 91.0202L12.1736 97.2748ZM6.71875 93.358L1.79752 98.3361L1.79752 98.3361L6.71875 93.358ZM2.75673 87.9672L-3.46654 91.172L-3.46498 91.175L2.75673 87.9672ZM0.646136 81.634L-6.24081 82.887L-6.24042 82.8891L0.646136 81.634ZM0.0550281 74.9762L7.05244 74.786L7.05231 74.7813L0.0550281 74.9762ZM0.0088755 71.9176L7.00878 71.881L7.00874 71.8737L7.00869 71.8663L0.0088755 71.9176ZM0.0088755 28.0842L7.00869 28.1356L7.00874 28.1281L7.00878 28.1207L0.0088755 28.0842ZM0.0550281 25.0238L7.05232 25.2187L7.05245 25.2139L0.0550281 25.0238ZM0.646136 18.3642L-6.24042 17.1091L-6.24099 17.1122L0.646136 18.3642ZM2.75673 12.0328L-3.46613 8.82721L-3.46654 8.828L2.75673 12.0328ZM6.71875 6.64201L11.6372 11.6228L11.6428 11.6174L6.71875 6.64201ZM12.1736 2.72524L15.3169 8.97981L15.3227 8.97692L12.1736 2.72524ZM18.5764 0.638756L19.7987 7.53122L19.8009 7.53083L18.5764 0.638756ZM25.3129 0.0526447L25.2276 -6.94684L25.1774 -6.94622L25.1271 -6.94489L25.3129 0.0526447ZM70.6176 0L70.6201 7L70.6176 -7V0ZM55.6993 0.00526447L55.6968 -6.99474L55.7016 7.00526L55.6993 0.00526447ZM71.6223 0L71.6432 -6.99997L71.6316 -7L71.62 -7L71.6223 0ZM78.3925 0.0526447L78.2024 7.05006L78.2068 7.05018L78.3925 0.0526447ZM85.1291 0.638756L83.9046 7.53083L83.9068 7.53122L85.1291 0.638756ZM91.5318 2.72524L88.3828 8.97692L88.3863 8.97869L91.5318 2.72524ZM96.9867 6.64201L92.0627 11.6174L92.0683 11.6228L96.9867 6.64201ZM100.947 12.0328L94.7218 15.2341L94.7259 15.2419L100.947 12.0328ZM103.058 18.3642L96.17 19.614L96.1704 19.6162L103.058 18.3642ZM103.65 25.0238L96.653 25.2139L96.6532 25.2187L103.65 25.0238ZM103.697 28.0842L96.6967 28.1207L96.6967 28.1253L103.697 28.0842ZM96.7037 68.2833C96.7037 69.4976 96.7037 70.6879 96.6967 71.8766L110.696 71.9586C110.704 70.7221 110.704 69.4907 110.704 68.2833H96.7037ZM96.6967 71.881C96.6915 72.87 96.6796 73.8329 96.6532 74.7813L110.648 75.1711C110.678 74.0805 110.691 73.0042 110.697 71.9541L96.6967 71.881ZM96.653 74.786C96.5959 76.8869 96.4744 78.7113 96.1706 80.381L109.945 82.887C110.44 80.1661 110.584 77.5052 110.648 75.1665L96.653 74.786ZM96.17 80.3842C95.8725 82.0237 95.4134 83.4254 94.7259 84.7581L107.168 91.1763C108.572 88.4553 109.433 85.7051 109.945 82.8838L96.17 80.3842ZM94.723 84.7637C94.0383 86.094 93.1405 87.3172 92.0655 88.3799L101.908 98.3361C104.028 96.2401 105.807 93.8203 107.171 91.1706L94.723 84.7637ZM92.0655 88.3799C90.9898 89.4433 89.7449 90.338 88.3863 91.0213L94.6774 103.528C97.3448 102.186 99.7884 100.431 101.908 98.3361L92.0655 88.3799ZM88.3828 91.0231C87.0167 91.7112 85.5806 92.172 83.9068 92.4688L86.3513 106.254C89.1899 105.75 91.9501 104.902 94.6809 103.526L88.3828 91.0231ZM83.9046 92.4692C82.1958 92.7727 80.3374 92.8932 78.2068 92.9498L78.5783 106.945C80.9423 106.882 83.6174 106.739 86.3535 106.253L83.9046 92.4692ZM78.3073 92.9479C74.0103 93.0002 72.8143 93 71.6223 93V107C72.88 107 74.1336 107 78.4778 106.947L78.3073 92.9479ZM71.6223 93H46.1526V107H71.6223V93ZM46.1526 93H32.0832V107H46.1526V93ZM32.104 93C27.3688 92.9859 26.4318 92.9752 25.5034 92.9499L25.1224 106.945C26.2567 106.976 27.3824 106.986 32.0623 107L32.104 93ZM25.4987 92.9498C23.3681 92.8932 21.5097 92.7727 19.8009 92.4692L17.352 106.253C20.088 106.739 22.7632 106.882 25.1271 106.945L25.4987 92.9498ZM19.7987 92.4688C18.1249 92.172 16.6888 91.7112 15.3227 91.0231L9.02459 103.526C11.7554 104.902 14.5156 105.75 17.3541 106.254L19.7987 92.4688ZM15.3169 91.0202C13.96 90.3382 12.717 89.4446 11.64 88.3799L1.79752 98.3361C3.91568 100.43 6.35783 102.186 9.03032 103.529L15.3169 91.0202ZM11.64 88.3799C10.5651 87.3173 9.66602 86.0929 8.97844 84.7593L-3.46498 91.175C-2.10054 93.8214 -0.322777 96.24 1.79752 98.3361L11.64 88.3799ZM8.98 84.7624C8.29241 83.4272 7.83221 82.0223 7.5327 80.3789L-6.24042 82.8891C-5.72694 85.7065 -4.86647 88.4536 -3.46654 91.172L8.98 84.7624ZM7.53308 80.381C7.22978 78.7139 7.10969 76.8917 7.05244 74.786L-6.94239 75.1665C-6.87893 77.5004 -6.7363 80.1635 -6.24081 82.887L7.53308 80.381ZM7.05231 74.7813C7.02589 73.8328 7.01395 72.87 7.00878 71.881L-6.99103 71.9541C-6.98554 73.0042 -6.97264 74.0805 -6.94226 75.1711L7.05231 74.7813ZM7.00869 71.8663C7.00003 70.6836 7 69.4984 7 68.2833H-7C-7 69.4899 -7.00003 70.7263 -6.99094 71.9688L7.00869 71.8663ZM7 68.2833V56.2264H-7V68.2833H7ZM7 56.2264V43.7735H-7V56.2264H7ZM7 43.7735V31.7167H-7V43.7735H7ZM7 31.7167C7 30.5015 7.00003 29.3147 7.00869 28.1356L-6.99094 28.0328C-7.00003 29.2719 -7 30.5102 -7 31.7167H7ZM7.00878 28.1207C7.01395 27.1299 7.02589 26.1671 7.05231 25.2187L-6.94226 24.8289C-6.97264 25.9195 -6.98554 26.9958 -6.99103 28.0477L7.00878 28.1207ZM7.05245 25.2139C7.10968 23.1071 7.22973 21.2859 7.53326 19.6162L-6.24099 17.1122C-6.73625 19.8366 -6.87892 22.4973 -6.94239 24.8337L7.05245 25.2139ZM7.5327 19.6193C7.83198 17.9772 8.29191 16.5738 8.98 15.2376L-3.46654 8.828C-4.86597 11.5455 -5.72672 14.2905 -6.24042 17.1091L7.5327 19.6193ZM8.97959 15.2384C9.66685 13.9043 10.5648 12.6818 11.6372 11.6228L1.80029 1.66117C-0.322487 3.75737 -2.10137 6.17788 -3.46613 8.82721L8.97959 15.2384ZM11.6428 11.6174C12.7162 10.555 13.9574 9.66304 15.3169 8.97981L9.03032 -3.52932C6.36035 -2.18749 3.91649 -0.433182 1.79476 1.66664L11.6428 11.6174ZM15.3227 8.97692C16.6888 8.2888 18.1249 7.82804 19.7987 7.53122L17.3541 -6.2537C14.5156 -5.75033 11.7554 -4.90199 9.02459 -3.52644L15.3227 8.97692ZM19.8009 7.53083C21.5097 7.22725 23.3681 7.10675 25.4987 7.05018L25.1271 -6.94489C22.7632 -6.88213 20.088 -6.73941 17.352 -6.25332L19.8009 7.53083ZM25.3982 7.05213C29.6952 6.99977 30.8912 7 32.0832 7V-7C30.8255 -7 29.5719 -6.99977 25.2276 -6.94684L25.3982 7.05213ZM32.0832 7H46.1526V-7H32.0832V7ZM46.1526 7H70.6176V-7H46.1526V7ZM70.6151 -7L55.6968 -6.99474L55.7017 7.00526L70.6201 7L70.6151 -7ZM55.7016 7.00526L71.6246 7L71.62 -7L55.6969 -6.99474L55.7016 7.00526ZM71.6014 6.99997C76.3347 7.01409 77.272 7.02478 78.2024 7.05006L78.5827 -6.94477C77.4469 -6.97564 76.3215 -6.98601 71.6432 -6.99997L71.6014 6.99997ZM78.2068 7.05018C80.3374 7.10675 82.1958 7.22725 83.9046 7.53083L86.3535 -6.25332C83.6175 -6.73941 80.9423 -6.88213 78.5783 -6.94489L78.2068 7.05018ZM83.9068 7.53122C85.5806 7.82804 87.0167 8.2888 88.3828 8.97692L94.6809 -3.52644C91.9501 -4.90199 89.1899 -5.75033 86.3513 -6.2537L83.9068 7.53122ZM88.3863 8.97869C89.7474 9.66331 90.9906 10.5564 92.0627 11.6174L101.911 1.66664C99.7876 -0.434535 97.3422 -2.18777 94.6774 -3.52821L88.3863 8.97869ZM92.0683 11.6228C93.1408 12.6819 94.0375 13.9033 94.7218 15.2341L107.172 8.83159C105.808 6.17894 104.028 3.75726 101.905 1.66117L92.0683 11.6228ZM94.7259 15.2419C95.4139 16.5756 95.8728 17.9757 96.17 19.614L109.945 17.1144C109.433 14.2919 108.571 11.5437 107.168 8.8237L94.7259 15.2419ZM96.1704 19.6162C96.4744 21.2885 96.5959 23.1119 96.653 25.2139L110.648 24.8337C110.584 22.4925 110.439 19.834 109.945 17.1122L96.1704 19.6162ZM96.6532 25.2187C96.6796 26.1671 96.6915 27.1299 96.6967 28.1207L110.697 28.0477C110.691 26.9958 110.678 25.9196 110.648 24.8289L96.6532 25.2187ZM96.6967 28.1253C96.7037 29.3104 96.7037 30.5024 96.7037 31.7167H110.704C110.704 30.5093 110.704 29.2762 110.696 28.0431L96.6967 28.1253ZM96.7037 31.7167V43.7735H110.704V31.7167H96.7037ZM96.7037 43.7735V56.2264H110.704V43.7735H96.7037ZM96.7037 56.2264V68.2833H110.704V56.2264H96.7037Z" fill="url(#paint0_linear)" mask="url(#path-1-inside-1)"/>
<path fill-rule="evenodd" clip-rule="evenodd" d="M40.7941 42.7227C40.7941 42.4466 41.018 42.2227 41.2941 42.2227H57.3146C57.5907 42.2227 57.8146 42.4466 57.8146 42.7227V45.0513C57.8146 45.3275 57.5907 45.5513 57.3146 45.5513H41.2941C41.018 45.5513 40.7941 45.3275 40.7941 45.0513V42.7227Z" fill="white"/>
<path fill-rule="evenodd" clip-rule="evenodd" d="M35.2871 33.4575C35.4413 33.3179 35.4102 33.0676 35.2265 32.9701L28.8497 29.5831C28.7142 29.5112 28.6549 29.3486 28.712 29.2063L33.1982 18.0368C33.3168 17.7415 32.9544 17.489 32.7185 17.7026L18.9815 30.1348C18.8374 30.2652 18.8535 30.4961 19.0142 30.6053L25.0841 34.7286C25.2001 34.8074 25.246 34.956 25.1947 35.0865L21.0856 45.5432C20.9696 45.8383 21.331 46.0881 21.5661 45.8754L35.2871 33.4575Z" fill="white"/>
<defs>
<linearGradient id="paint0_linear" x1="53.7037" y1="0" x2="53.7037" y2="105.556" gradientUnits="userSpaceOnUse">
<stop stop-color="#F743B6"/>
<stop offset="1" stop-color="#FCC043"/>
</linearGradient>
</defs>
</svg>
